<svg fill="none" height="320" viewBox="0 0 338 320" width="338" xmlns="http://www.w3.org/2000/svg"><path d="m.540009 160c0 42.435 16.857091 83.131 46.862891 113.137s70.7021 46.863 113.1371 46.863 83.131-16.857 113.137-46.863 46.863-70.702 46.863-113.137-16.857-83.1313-46.863-113.1371-70.702-46.8629-113.137-46.8629-83.1313 16.8571-113.1371 46.8629-46.862891 70.7021-46.862891 113.1371z" fill="#d9edff"/><path d="m236 261.224h-149.2c-2.6713 0-5.2331-1.061-7.122-2.95-1.8888-1.889-2.95-4.451-2.95-7.122v-193.152c0-2.7848 1.1062-5.4555 3.0754-7.4246 1.9691-1.9692 4.6398-3.0754 7.4246-3.0754h148.32c2.785 0 5.455 1.1062 7.425 3.0754 1.969 1.9691 3.075 4.6398 3.075 7.4246v193.152c.001 2.667-1.056 5.226-2.94 7.115-1.884 1.888-4.441 2.952-7.108 2.957z" fill="#b0d9ff"/><path d="m236 261.224h-149.2c-2.6713 0-5.2331-1.061-7.122-2.95-1.8888-1.889-2.95-4.451-2.95-7.122v-193.152c0-2.7848 1.1062-5.4555 3.0754-7.4246 1.9691-1.9692 4.6398-3.0754 7.4246-3.0754h148.32c2.785 0 5.455 1.1062 7.425 3.0754 1.969 1.9691 3.075 4.6398 3.075 7.4246v193.152c.001 2.667-1.056 5.226-2.94 7.115-1.884 1.888-4.441 2.952-7.108 2.957z" stroke="#020064" stroke-linecap="round" stroke-linejoin="round" stroke-width="4"/><path d="m93.388 64.148h136.008v180.42h-136.008z" fill="#fff"/><path d="m229.396 125.956-39.496 42.8c-2.491 2.706-3.805 6.291-3.655 9.966.15 3.674 1.752 7.14 4.455 9.634 1.696 1.563 3.76 2.673 6 3.224l-12.84 12.844 1.964 1.964-17.344 17.34c-.777.773-1.307 1.758-1.526 2.832-.218 1.074-.114 2.188.298 3.203.413 1.015 1.117 1.885 2.023 2.502.906.616 1.973.951 3.069.963.403-.001.805-.042 1.2-.124 15.2-3.232 22.932-7.9 23.02-13.892l1.048-1.052 3.928 3.928 9.66-9.688c.685.548 1.418 1.031 2.192 1.444 2.554 1.36 5.47 1.887 8.339 1.508 2.868-.378 5.547-1.644 7.661-3.62z" fill="#b0d9ff"/><g stroke="#020064" stroke-linecap="round" stroke-linejoin="round" stroke-width="4"><path d="m93.388 64.148h136.008v180.42h-136.008z"/><path d="m112.776 108.56h84.812"/><path d="m112.776 133.54h84.812"/><path d="m112.776 161.3h59.112"/></g><path d="m123.404 39.168h75.976c1.333.0042 2.61.5367 3.551 1.4807.941.9439 1.469 2.2224 1.469 3.5553v26c0 1.3367-.531 2.6186-1.476 3.5638s-2.227 1.4762-3.564 1.4762h-75.952c-1.337 0-2.619-.531-3.564-1.4762s-1.476-2.2271-1.476-3.5638v-26c0-1.3356.531-2.6166 1.475-3.561s2.225-1.475 3.561-1.475z" fill="#fff"/><path d="m123.404 39.168h75.976c1.333.0042 2.61.5367 3.551 1.4807.941.9439 1.469 2.2224 1.469 3.5553v26c0 1.3367-.531 2.6186-1.476 3.5638s-2.227 1.4762-3.564 1.4762h-75.952c-1.337 0-2.619-.531-3.564-1.4762s-1.476-2.2271-1.476-3.5638v-26c0-1.3356.531-2.6166 1.475-3.561s2.225-1.475 3.561-1.475z" stroke="#020064" stroke-linecap="round" stroke-linejoin="round" stroke-width="4"/><path d="m137.796 64.148h47.188" stroke="#020064" stroke-linecap="round" stroke-linejoin="round" stroke-width="4"/><path d="m148.9 36.392c0 1.8227.359 3.6276 1.057 5.3116.697 1.684 1.719 3.2142 3.008 4.503 1.289 1.2889 2.819 2.3113 4.503 3.0088 1.684.6976 3.489 1.0566 5.312 1.0566s3.628-.359 5.312-1.0566c1.684-.6975 3.214-1.7199 4.503-3.0088 1.289-1.2888 2.311-2.819 3.008-4.503.698-1.684 1.057-3.4889 1.057-5.3116 0-1.8228-.359-3.6277-1.057-5.3117-.697-1.684-1.719-3.2141-3.008-4.503-1.289-1.2888-2.819-2.3112-4.503-3.0088-1.684-.6975-3.489-1.0565-5.312-1.0565s-3.628.359-5.312 1.0565c-1.684.6976-3.214 1.72-4.503 3.0088-1.289 1.2889-2.311 2.819-3.008 4.503-.698 1.684-1.057 3.4889-1.057 5.3117z" fill="#fff"/><path d="m148.9 36.392c0 1.8227.359 3.6276 1.057 5.3116.697 1.684 1.719 3.2142 3.008 4.503 1.289 1.2889 2.819 2.3113 4.503 3.0088 1.684.6976 3.489 1.0566 5.312 1.0566s3.628-.359 5.312-1.0566c1.684-.6975 3.214-1.7199 4.503-3.0088 1.289-1.2888 2.311-2.819 3.008-4.503.698-1.684 1.057-3.4889 1.057-5.3116 0-1.8228-.359-3.6277-1.057-5.3117-.697-1.684-1.719-3.2141-3.008-4.503-1.289-1.2888-2.819-2.3112-4.503-3.0088-1.684-.6975-3.489-1.0565-5.312-1.0565s-3.628.359-5.312 1.0565c-1.684.6976-3.214 1.72-4.503 3.0088-1.289 1.2889-2.311 2.819-3.008 4.503-.698 1.684-1.057 3.4889-1.057 5.3117z" stroke="#020064" stroke-linecap="round" stroke-linejoin="round" stroke-width="4"/><path d="m219.828 159.572 48.62 18.136 20.452-32.8-52.864-14.276z" fill="#d9edff"/><path d="m297.34 214.916 37.656-37.656c.147-.142.302-.275.464-.4-12.604-10.936-15.712-34.104-39.952-46.76-31.908-16.664-71.372-12.688-106.036 30.6-.794.942-1.391 2.033-1.758 3.209s-.495 2.413-.378 3.64c.118 1.226.479 2.416 1.062 3.501s1.377 2.043 2.335 2.817c.958.775 2.061 1.35 3.244 1.693s2.423.446 3.646.304c1.224-.142 2.407-.527 3.48-1.132s2.014-1.419 2.769-2.392c2.299-2.843 4.608-5.489 6.928-7.94.815.871 1.792 1.574 2.876 2.072 36.268 27.46 43.6 30.948 52.472 34.4 13.72 5.332 19.776 7.908 29.864 17.04.061-1.128.533-2.194 1.328-2.996zm-24.848-58.612c-3.056 3.697-7.308 6.211-12.021 7.105-4.712.894-9.589.112-13.787-2.209l-21.448-9.808c12.516-9.16 25.144-12.984 37.72-11.344 10.7 1.376 13.176 10.84 9.536 16.256z" fill="#fff"/><path d="m100.304 293.36c0 1.842 6.342 3.608 17.631 4.91s26.6 2.034 42.565 2.034 31.276-.732 42.565-2.034 17.631-3.068 17.631-4.91-6.342-3.608-17.631-4.91-26.6-2.034-42.565-2.034-31.276.732-42.565 2.034-17.631 3.068-17.631 4.91z" fill="#b0d9ff"/><path d="m121.248 190.144c-1.435 1.434-2.494 3.2-3.084 5.142-.589 1.941-.691 3.998-.295 5.988.395 1.99 1.275 3.852 2.562 5.42 1.287 1.569 2.941 2.796 4.815 3.572 1.875.777 3.912 1.079 5.931.88 2.019-.198 3.958-.892 5.645-2.019 1.687-1.128 3.07-2.654 4.026-4.443s1.456-3.787 1.456-5.816v2.464c-.026 1.313.209 2.618.693 3.838.485 1.221 1.207 2.333 2.127 3.271.919.937 2.016 1.682 3.226 2.191 1.211.509 2.511.771 3.824.771s2.613-.262 3.824-.771c1.21-.509 2.307-1.254 3.226-2.191.92-.938 1.642-2.05 2.127-3.271.484-1.22.719-2.525.693-3.838 0 2.617 1.04 5.127 2.89 6.978 1.851 1.85 4.361 2.89 6.978 2.89h7.4" stroke="#020064" stroke-linecap="round" stroke-linejoin="round" stroke-width="4"/><path d="m243.644 163.356c1.215.065 2.405.369 3.503.894s2.081 1.261 2.894 2.166 1.44 1.962 1.845 3.109c.405 1.148.579 2.364.514 3.579l-1.628 30.056c-.066 1.214-.37 2.404-.896 3.501s-1.262 2.079-2.168 2.891c-.905.812-1.961 1.438-3.109 1.842-1.147.404-2.363.578-3.577.512s-2.404-.37-3.501-.896-2.079-1.262-2.891-2.168c-.812-.905-1.438-1.961-1.842-3.109-.404-1.147-.578-2.363-.512-3.577l1.628-30.052c.132-2.451 1.233-4.75 3.059-6.39 1.826-1.641 4.23-2.489 6.681-2.358z" fill="#d9edff" stroke="#020064" stroke-linecap="round" stroke-linejoin="round" stroke-width="4"/><path d="m234.076 160.468c2.167 1.155 3.787 3.124 4.504 5.473.716 2.349.47 4.887-.684 7.055l-11.052 21.512c-1.155 2.168-3.123 3.788-5.473 4.505-2.349.716-4.887.47-7.055-.685s-3.788-3.123-4.505-5.473c-.716-2.349-.47-4.887.685-7.055l11.052-21.512c1.155-2.167 3.124-3.787 5.473-4.504 2.349-.716 4.887-.47 7.055.684z" fill="#d9edff" stroke="#020064" stroke-linecap="round" stroke-linejoin="round" stroke-width="4"/><path d="m334.996 177.26c.147-.142.302-.275.464-.4-12.604-10.936-15.712-34.104-39.952-46.76-31.908-16.664-71.372-12.688-106.036 30.6-.794.942-1.391 2.033-1.758 3.209s-.495 2.413-.378 3.64c.118 1.226.479 2.416 1.062 3.501s1.377 2.043 2.335 2.817c.958.775 2.061 1.35 3.244 1.693s2.423.446 3.646.304c1.224-.142 2.407-.527 3.48-1.132s2.014-1.419 2.769-2.392c2.299-2.843 4.608-5.489 6.928-7.94.815.871 1.792 1.574 2.876 2.072 36.268 27.46 43.6 30.948 52.472 34.4 13.72 5.332 19.776 7.908 29.864 17.04zm-62.488-20.948c-3.058 3.7-7.313 6.214-12.029 7.107-4.717.892-9.597.108-13.795-2.219l-21.448-9.808c12.516-9.16 25.144-12.984 37.72-11.344 10.7 1.376 13.176 10.84 9.536 16.256z" stroke="#020064" stroke-linecap="round" stroke-linejoin="round" stroke-width="4"/><path d="m264.472 158.144-12.072-16.988 37.6-26.708c1.012-.719 2.155-1.231 3.365-1.508 1.209-.277 2.462-.313 3.685-.105 1.224.207 2.395.653 3.446 1.313s1.962 1.52 2.68 2.532l1.124 1.58c.719 1.012 1.231 2.155 1.508 3.365.277 1.209.313 2.462.105 3.685-.207 1.224-.653 2.395-1.313 3.446s-1.52 1.962-2.532 2.68z" fill="#b0d9ff"/><path d="m264.472 158.144-12.072-16.988 37.6-26.708c1.012-.719 2.155-1.231 3.365-1.508 1.209-.277 2.462-.313 3.685-.105 1.224.207 2.395.653 3.446 1.313s1.962 1.52 2.68 2.532l1.124 1.58c.719 1.012 1.231 2.155 1.508 3.365.277 1.209.313 2.462.105 3.685-.207 1.224-.653 2.395-1.313 3.446s-1.52 1.962-2.532 2.68z" stroke="#020064" stroke-linecap="round" stroke-linejoin="round" stroke-width="4"/><path d="m254.044 131.472 26.428-18.772c.736-.547 1.576-.94 2.468-1.154.893-.215 1.819-.246 2.724-.093s1.769.488 2.541.984 1.436 1.144 1.951 1.903" stroke="#020064" stroke-linecap="round" stroke-linejoin="round" stroke-width="4"/><path d="m193.284 188.832-18.564 13.2c-.41.285-.717.696-.874 1.17-.157.475-.156.987.002 1.461.159.474.467.884.878 1.168s.903.428 1.402.409c7.784-.32 18.908-1.732 18.744-7.164l3.776-2.68z" fill="#b0d9ff" stroke="#020064" stroke-linecap="round" stroke-linejoin="round" stroke-width="4"/><path d="m200 198.272-6.704-9.44c-.355-.501-.497-1.122-.394-1.727.103-.606.441-1.145.942-1.501l9.436-6.704 9.388 13.2-9.468 6.7c-.496.348-1.109.488-1.708.39-.598-.099-1.134-.429-1.492-.918z" fill="#fff"/><path d="m200 198.272-6.704-9.44c-.355-.501-.497-1.122-.394-1.727.103-.606.441-1.145.942-1.501l9.436-6.704 9.388 13.2-9.468 6.7c-.496.348-1.109.488-1.708.39-.598-.099-1.134-.429-1.492-.918z" stroke="#020064" stroke-linecap="round" stroke-linejoin="round" stroke-width="4"/><path d="m211.316 190.224-6.704-9.424c-.352-.496-.604-1.056-.74-1.648-.136-.593-.153-1.207-.052-1.806.102-.6.32-1.174.643-1.689.324-.515.745-.961 1.241-1.313l46.696-33.188 12.068 16.988-46.696 33.176c-.496.352-1.056.603-1.649.739-.593.135-1.207.153-1.806.051-.6-.102-1.173-.321-1.688-.644-.515-.324-.961-.746-1.313-1.242z" fill="#b0d9ff"/><path d="m211.316 190.224-6.704-9.424c-.352-.496-.604-1.056-.74-1.648-.136-.593-.153-1.207-.052-1.806.102-.6.32-1.174.643-1.689.324-.515.745-.961 1.241-1.313l46.696-33.188 12.068 16.988-46.696 33.176c-.496.352-1.056.603-1.649.739-.593.135-1.207.153-1.806.051-.6-.102-1.173-.321-1.688-.644-.515-.324-.961-.746-1.313-1.242z" stroke="#020064" stroke-linecap="round" stroke-linejoin="round" stroke-width="4"/><path d="m272.492 156.304c-3.056 3.697-7.308 6.211-12.021 7.105-4.712.894-9.589.112-13.787-2.209l-25.32-11.6c-1.109-.528-2.312-.83-3.54-.888-1.227-.059-2.453.127-3.608.547-1.154.42-2.213 1.066-3.116 1.899s-1.631 1.837-2.142 2.955c-.51 1.117-.794 2.325-.834 3.552-.04 1.228.165 2.452.603 3.6.437 1.148 1.099 2.197 1.946 3.087s1.862 1.602 2.987 2.096c36.268 27.464 43.6 30.948 52.472 34.4" fill="#fff"/><path d="m272.492 156.304c-3.056 3.697-7.308 6.211-12.021 7.105-4.712.894-9.589.112-13.787-2.209l-25.32-11.6c-1.109-.528-2.312-.83-3.54-.888-1.227-.059-2.453.127-3.608.547-1.154.42-2.213 1.066-3.116 1.899s-1.631 1.837-2.142 2.955c-.51 1.117-.794 2.325-.834 3.552-.04 1.228.165 2.452.603 3.6.437 1.148 1.099 2.197 1.946 3.087s1.862 1.602 2.987 2.096c36.268 27.464 43.6 30.948 52.472 34.4" stroke="#020064" stroke-linecap="round" stroke-linejoin="round" stroke-width="4"/><path d="m272.492 156.304c-3.056 3.697-7.308 6.211-12.021 7.105-4.712.894-9.589.112-13.787-2.209l-25.32-11.6c-1.109-.528-2.312-.83-3.54-.888-1.227-.059-2.453.127-3.608.547-1.154.42-2.213 1.066-3.116 1.899s-1.631 1.837-2.142 2.955c-.51 1.117-.794 2.325-.834 3.552-.04 1.228.165 2.452.603 3.6.437 1.148 1.099 2.197 1.946 3.087s1.862 1.602 2.987 2.096c36.268 27.464 43.6 30.948 52.472 34.4" fill="#fff"/><path d="m272.492 156.304c-3.056 3.697-7.308 6.211-12.021 7.105-4.712.894-9.589.112-13.787-2.209l-25.32-11.6c-1.109-.528-2.312-.83-3.54-.888-1.227-.059-2.453.127-3.608.547-1.154.42-2.213 1.066-3.116 1.899s-1.631 1.837-2.142 2.955c-.51 1.117-.794 2.325-.834 3.552-.04 1.228.165 2.452.603 3.6.437 1.148 1.099 2.197 1.946 3.087s1.862 1.602 2.987 2.096c36.268 27.464 43.6 30.948 52.472 34.4" stroke="#020064" stroke-linecap="round" stroke-linejoin="round" stroke-width="4"/></svg>