<svg fill="none" height="24" viewBox="0 0 24 24" width="24" xmlns="http://www.w3.org/2000/svg" xmlns:xlink="http://www.w3.org/1999/xlink"><filter id="a" color-interpolation-filters="sRGB" filterUnits="userSpaceOnUse" height="24" width="26" x="-.5" y=".494263"><feFlood flood-opacity="0" result="BackgroundImageFix"/><feBlend in="SourceGraphic" in2="BackgroundImageFix" mode="normal" result="shape"/><feColorMatrix in="SourceAlpha" result="hardAlpha" type="matrix" values="0 0 0 0 0 0 0 0 0 0 0 0 0 0 0 0 0 0 127 0"/><feOffset/><feGaussianBlur stdDeviation=".25"/><feComposite in2="hardAlpha" k2="-1" k3="1" operator="arithmetic"/><feColorMatrix type="matrix" values="0 0 0 0 1 0 0 0 0 1 0 0 0 0 1 0 0 0 0.3 0"/><feBlend in2="shape" mode="normal" result="effect1_innerShadow_19_396"/><feColorMatrix in="SourceAlpha" result="hardAlpha" type="matrix" values="0 0 0 0 0 0 0 0 0 0 0 0 0 0 0 0 0 0 127 0"/><feOffset dx="-1" dy="1"/><feGaussianBlur stdDeviation="1"/><feComposite in2="hardAlpha" k2="-1" k3="1" operator="arithmetic"/><feColorMatrix type="matrix" values="0 0 0 0 1 0 0 0 0 1 0 0 0 0 1 0 0 0 0.25 0"/><feBlend in2="effect1_innerShadow_19_396" mode="normal" result="effect2_innerShadow_19_396"/><feColorMatrix in="SourceAlpha" result="hardAlpha" type="matrix" values="0 0 0 0 0 0 0 0 0 0 0 0 0 0 0 0 0 0 127 0"/><feOffset dx="2"/><feGaussianBlur stdDeviation="2"/><feComposite in2="hardAlpha" k2="-1" k3="1" operator="arithmetic"/><feColorMatrix type="matrix" values="0 0 0 0 0.220833 0 0 0 0 0.220833 0 0 0 0 0.220833 0 0 0 0.28 0"/><feBlend in2="effect2_innerShadow_19_396" mode="normal" result="effect3_innerShadow_19_396"/><feColorMatrix in="SourceAlpha" result="hardAlpha" type="matrix" values="0 0 0 0 0 0 0 0 0 0 0 0 0 0 0 0 0 0 127 0"/><feOffset dx="1" dy="1"/><feGaussianBlur stdDeviation="1.5"/><feComposite in2="hardAlpha" k2="-1" k3="1" operator="arithmetic"/><feColorMatrix type="matrix" values="0 0 0 0 0.2 0 0 0 0 0.199167 0 0 0 0 0.199217 0 0 0 0.1 0"/><feBlend in2="effect3_innerShadow_19_396" mode="normal" result="effect4_innerShadow_19_396"/></filter><pattern id="b" height=".7125" patternContentUnits="objectBoundingBox" width=".95"/><clipPath id="c"><path d="m0 0h24v24h-24z"/></clipPath><g clip-path="url(#c)"><g filter="url(#a)" stroke-linecap="round" stroke-linejoin="round" stroke-width="3"><path d="m22 11.08v.92c-.0012 2.1564-.6995 4.2547-1.9907 5.9818-1.2911 1.7272-3.106 2.9907-5.1739 3.6021-2.068.6114-4.2781.538-6.30093-.2093-2.02279-.7473-3.74982-2.1285-4.92351-3.9375-1.17369-1.8091-1.73117-3.949-1.58928-6.1008.14188-2.15175.97553-4.19999 2.3766-5.83924s3.29451-2.78169 5.39791-3.25693c2.10341-.47523 4.30411-.25781 6.27381.61986m5.93 1.14-10 10.01001-2.99999-3" stroke="#000"/><path d="m22 11.08v.92c-.0012 2.1564-.6995 4.2547-1.9907 5.9818-1.2911 1.7272-3.106 2.9907-5.1739 3.6021-2.068.6114-4.2781.538-6.30093-.2093-2.02279-.7473-3.74982-2.1285-4.92351-3.9375-1.17369-1.8091-1.73117-3.949-1.58928-6.1008.14188-2.15175.97553-4.19999 2.3766-5.83924s3.29451-2.78169 5.39791-3.25693c2.10341-.47523 4.30411-.25781 6.27381.61986m5.93 1.14-10 10.01001-2.99999-3" stroke="url(#b)" stroke-opacity=".05"/></g></g></svg>